<?xml version="1.0" encoding="UTF-8"?>
<!-- Generator: visioncortex VTracer 0.6.4 -->
<svg version="1.1" xmlns="http://www.w3.org/2000/svg" width="2048" height="2048">
<path d="M0 0 C1.07 0 2.14 0 3.24 0 C5.08 -0 5.08 -0 6.97 -0.01 C8.34 -0 9.72 0 11.1 0.01 C12.55 0.01 14.01 0.01 15.46 0 C19.47 -0 23.48 0.01 27.49 0.02 C31.8 0.02 36.12 0.02 40.44 0.02 C47.92 0.02 55.41 0.03 62.89 0.04 C73.72 0.05 84.54 0.06 95.36 0.06 C112.92 0.07 130.48 0.08 148.04 0.1 C165.1 0.12 182.15 0.13 199.21 0.14 C200.26 0.14 201.32 0.14 202.4 0.14 C207.67 0.14 212.94 0.15 218.21 0.15 C261.97 0.17 305.73 0.2 349.49 0.25 C347.88 4.54 345.86 7.59 342.99 11.19 C339.45 15.7 336 20.25 332.68 24.94 C332.28 25.51 331.87 26.08 331.46 26.67 C330.6 27.88 329.74 29.09 328.88 30.3 C326.29 33.94 323.67 37.56 321.06 41.19 C320.51 41.95 319.96 42.71 319.39 43.5 C315.88 48.35 312.35 53.18 308.81 58 C305.38 62.66 301.98 67.35 298.62 72.06 C289.76 84.5 280.8 96.86 271.73 109.14 C265.59 117.46 259.54 125.85 253.49 134.25 C246.29 144.25 239.05 154.23 231.73 164.14 C226.13 171.73 220.61 179.36 215.1 187.01 C212.4 190.76 209.7 194.5 206.99 198.25 C205.91 199.75 204.83 201.25 203.74 202.75 C197.24 211.75 197.24 211.75 195.62 214 C194.54 215.49 193.46 216.98 192.39 218.47 C189.58 222.36 186.77 226.25 183.96 230.14 C183.38 230.94 182.8 231.74 182.2 232.57 C181.1 234.1 180 235.62 178.89 237.15 C175.75 241.51 172.61 245.87 169.49 250.25 C170.37 250.16 171.25 250.07 172.15 249.98 C196.2 247.85 196.2 247.85 202.93 251.61 C206.81 255.32 209.02 259.95 211.26 264.77 C213.36 268.99 216.14 272.72 218.87 276.56 C219.96 278.16 221.05 279.75 222.14 281.35 C226.18 287.26 230.29 293.12 234.4 298.98 C238.41 304.69 242.37 310.42 246.32 316.18 C249.96 321.5 253.66 326.78 257.37 332.06 C262.45 339.3 267.47 346.58 272.45 353.89 C277.49 361.26 282.59 368.58 287.69 375.91 C291.52 381.4 295.33 386.91 299.12 392.44 C303.16 398.34 307.26 404.2 311.37 410.06 C316.5 417.37 321.57 424.72 326.6 432.1 C330.52 437.85 334.5 443.56 338.49 449.25 C344.79 458.22 351.06 467.21 357.16 476.31 C358.01 477.55 358.9 478.76 359.82 479.94 C360.99 481.47 360.99 481.47 362.49 484.25 C361.68 488.65 358.65 491.85 355.87 495.25 C354.87 496.49 353.88 497.73 352.89 498.97 C352.35 499.65 351.81 500.33 351.25 501.03 C347.96 505.19 344.76 509.41 341.56 513.62 C340.87 514.53 340.18 515.43 339.48 516.36 C334.93 522.34 330.42 528.34 325.93 534.36 C321.6 540.15 317.16 545.84 312.71 551.54 C308.39 557.07 304.15 562.66 299.95 568.29 C296.42 573.03 292.84 577.74 289.24 582.44 C288.71 583.13 288.18 583.82 287.63 584.54 C286.52 586 285.4 587.46 284.28 588.91 C275.68 600.14 267.11 611.4 258.64 622.72 C254.91 627.71 251.13 632.64 247.33 637.57 C238.78 648.65 230.31 659.79 221.94 671 C218.61 675.44 215.24 679.84 211.87 684.25 C206.55 691.22 201.25 698.22 195.99 705.25 C190.2 712.99 184.35 720.7 178.48 728.39 C173.91 734.38 169.38 740.4 164.87 746.44 C159.51 753.6 154.07 760.69 148.55 767.74 C144.29 773.21 140.1 778.73 135.95 784.29 C132.42 789.03 128.84 793.74 125.24 798.44 C124.71 799.13 124.18 799.83 123.63 800.55 C122.51 802.01 121.39 803.47 120.27 804.93 C111.75 816.06 103.26 827.21 94.87 838.44 C89.51 845.61 84.06 852.7 78.55 859.75 C74.35 865.12 70.24 870.55 66.16 876.01 C60.03 884.23 53.79 892.37 47.57 900.53 C44.82 904.13 42.08 907.73 39.33 911.34 C33.38 919.16 27.41 926.98 21.43 934.79 C17.05 940.52 12.68 946.26 8.31 952 C3.28 958.6 -1.76 965.18 -6.82 971.75 C-11.1 977.32 -15.35 982.92 -19.61 988.52 C-22.89 992.82 -26.16 997.12 -29.48 1001.39 C-29.92 1001.96 -30.36 1002.53 -30.82 1003.12 C-31.54 1004.01 -32.26 1004.9 -33 1005.81 C-34.81 1008.14 -36.09 1010.38 -37.29 1013.07 C-39.57 1017.71 -42.09 1021.43 -46.51 1024.25 C-55.59 1026.95 -65.61 1026.18 -75 1025.99 C-78.95 1025.92 -82.89 1025.95 -86.83 1025.96 C-93.66 1025.97 -100.48 1025.92 -107.3 1025.83 C-117.17 1025.71 -127.03 1025.67 -136.89 1025.65 C-152.9 1025.62 -168.9 1025.52 -184.91 1025.38 C-200.45 1025.24 -215.99 1025.14 -231.54 1025.07 C-232.5 1025.07 -233.45 1025.06 -234.44 1025.06 C-239.25 1025.04 -244.06 1025.02 -248.87 1025 C-288.75 1024.85 -328.63 1024.58 -368.51 1024.25 C-366.51 1020.89 -364.45 1017.7 -362.13 1014.56 C-361.42 1013.6 -360.72 1012.64 -359.99 1011.64 C-359.4 1010.84 -359.4 1010.84 -358.8 1010.02 C-356.86 1007.36 -354.93 1004.68 -353.01 1002.01 C-347.87 994.87 -342.68 987.76 -337.44 980.69 C-333.01 974.7 -328.65 968.66 -324.38 962.56 C-319.6 955.74 -314.65 949.05 -309.63 942.4 C-301.02 930.99 -292.62 919.43 -284.27 907.82 C-280.14 902.09 -275.92 896.43 -271.67 890.79 C-268.32 886.34 -265.02 881.86 -261.76 877.35 C-258.7 873.14 -255.6 868.94 -252.51 864.75 C-248.21 858.92 -243.92 853.08 -239.67 847.22 C-236.74 843.2 -233.78 839.19 -230.82 835.19 C-226.07 828.76 -221.36 822.3 -216.69 815.81 C-212.51 810 -208.27 804.23 -203.95 798.51 C-200.13 793.44 -196.39 788.31 -192.64 783.18 C-192.08 782.42 -191.51 781.65 -190.94 780.86 C-190.38 780.1 -189.83 779.34 -189.25 778.56 C-188.03 776.95 -186.77 775.36 -185.48 773.8 C-184.83 773.02 -184.18 772.23 -183.51 771.42 C-182.91 770.71 -182.31 770.01 -181.7 769.28 C-180.3 767.35 -180.3 767.35 -180.67 765.21 C-181.56 763.12 -182.57 761.46 -183.92 759.62 C-184.43 758.93 -184.93 758.23 -185.45 757.51 C-186.01 756.77 -186.56 756.02 -187.13 755.25 C-188 754.06 -188 754.06 -188.88 752.86 C-194.44 745.28 -200.09 737.77 -205.75 730.26 C-211.14 723.08 -216.46 715.84 -221.77 708.61 C-224.1 705.44 -226.42 702.28 -228.75 699.13 C-230.5 696.75 -232.25 694.38 -234 692 C-236.35 688.82 -238.69 685.64 -241.04 682.46 C-246.78 674.69 -252.49 666.9 -258.13 659.06 C-262.65 652.77 -267.25 646.55 -271.91 640.36 C-280.31 629.21 -288.6 617.97 -296.68 606.59 C-300.76 600.86 -304.94 595.21 -309.12 589.56 C-313.12 584.15 -317.08 578.71 -321.01 573.25 C-325.47 567.05 -329.97 560.89 -334.51 554.75 C-339.58 547.88 -344.61 540.98 -349.58 534.05 C-352.48 530.02 -355.41 526.03 -358.4 522.07 C-359.04 521.21 -359.68 520.36 -360.35 519.47 C-361.59 517.82 -362.84 516.17 -364.1 514.53 C-364.94 513.41 -364.94 513.41 -365.8 512.26 C-366.3 511.6 -366.8 510.95 -367.31 510.27 C-368.73 507.87 -369.28 506.03 -369.51 503.25 C-368.72 501.41 -368.72 501.41 -367.44 499.67 C-366.96 499.02 -366.48 498.36 -365.99 497.68 C-365.46 496.98 -364.93 496.28 -364.38 495.56 C-363.84 494.82 -363.29 494.07 -362.73 493.31 C-361.58 491.74 -360.42 490.17 -359.25 488.61 C-357.04 485.62 -354.88 482.61 -352.72 479.59 C-347.13 471.79 -341.44 464.07 -335.74 456.36 C-329.6 448.03 -323.55 439.64 -317.51 431.25 C-310.3 421.24 -303.06 411.27 -295.74 401.35 C-291.79 396.01 -287.89 390.64 -284.01 385.25 C-279.55 379.05 -275.04 372.89 -270.51 366.75 C-263.77 357.63 -257.13 348.45 -250.51 339.25 C-243.31 329.25 -236.07 319.28 -228.75 309.37 C-224.69 303.88 -220.68 298.35 -216.69 292.81 C-212.48 286.96 -208.21 281.16 -203.86 275.41 C-200.4 270.77 -197.03 266.07 -193.65 261.37 C-189.64 255.8 -185.59 250.27 -181.51 244.75 C-176.97 238.61 -172.47 232.44 -168.01 226.25 C-162.97 219.25 -157.86 212.29 -152.74 205.35 C-148.79 200.01 -144.89 194.64 -141.01 189.25 C-133.67 179.05 -126.2 168.95 -118.73 158.85 C-111.91 149.61 -105.11 140.34 -98.4 131.02 C-94.47 125.57 -90.5 120.15 -86.51 114.75 C-79.21 104.88 -72.03 94.94 -64.87 84.97 C-58.6 76.25 -52.28 67.57 -45.81 59 C-42.27 54.3 -38.83 49.54 -35.43 44.74 C-31.33 38.97 -27.12 33.28 -22.92 27.6 C-18.08 21.06 -13.32 14.47 -8.59 7.86 C-7.83 6.8 -7.83 6.8 -7.05 5.71 C-6.61 5.09 -6.16 4.47 -5.7 3.83 C-3.03 0.3 -3.03 0.3 0 0 Z " fill="#0A4435" transform="translate(1027.5054312944412,511.7516030073166)"/>
<path d="M0 0 C27.14 -1.76 27.14 -1.76 34.48 2.41 C38.36 6.11 40.56 10.72 42.78 15.54 C44.87 19.76 47.65 23.48 50.38 27.31 C51.47 28.91 52.56 30.5 53.64 32.1 C57.68 38.01 61.8 43.87 65.91 49.73 C69.92 55.44 73.88 61.17 77.82 66.93 C81.47 72.25 85.17 77.53 88.88 82.81 C93.96 90.05 98.98 97.33 103.96 104.64 C108.99 112.01 114.09 119.33 119.19 126.66 C123.02 132.15 126.84 137.66 130.62 143.19 C134.67 149.09 138.76 154.96 142.88 160.81 C148.01 168.12 153.07 175.47 158.1 182.85 C162.03 188.6 166 194.31 170 200 C176.3 208.97 182.57 217.96 188.67 227.07 C189.52 228.3 190.4 229.51 191.32 230.69 C192.49 232.23 192.49 232.23 194 235 C193.19 239.4 190.15 242.61 187.38 246 C186.38 247.24 185.39 248.48 184.39 249.73 C183.58 250.74 183.58 250.74 182.75 251.78 C179.47 255.94 176.27 260.16 173.06 264.38 C172.38 265.28 171.69 266.18 170.98 267.11 C166.44 273.09 161.93 279.1 157.44 285.11 C153.11 290.9 148.66 296.59 144.21 302.29 C139.89 307.82 135.66 313.42 131.46 319.04 C127.92 323.78 124.35 328.49 120.75 333.19 C120.22 333.88 119.69 334.58 119.14 335.29 C118.02 336.75 116.9 338.21 115.79 339.67 C107.19 350.9 98.62 362.15 90.15 373.48 C86.42 378.46 82.63 383.39 78.83 388.32 C70.29 399.4 61.82 410.54 53.45 421.75 C50.12 426.19 46.74 430.59 43.38 435 C38.05 441.98 32.76 448.97 27.5 456 C21.71 463.75 15.86 471.45 9.98 479.14 C5.41 485.13 0.88 491.15 -3.62 497.19 C-8.98 504.35 -14.43 511.44 -19.94 518.49 C-24.21 523.96 -28.39 529.48 -32.54 535.04 C-36.08 539.78 -39.65 544.49 -43.25 549.19 C-43.78 549.88 -44.32 550.58 -44.87 551.3 C-45.99 552.76 -47.11 554.22 -48.23 555.68 C-56.75 566.81 -65.24 577.96 -73.62 589.19 C-78.98 596.36 -84.43 603.45 -89.95 610.5 C-94.14 615.87 -98.25 621.3 -102.33 626.76 C-108.47 634.98 -114.7 643.12 -120.92 651.28 C-123.67 654.88 -126.42 658.48 -129.16 662.09 C-135.12 669.91 -141.08 677.73 -147.06 685.54 C-151.44 691.27 -155.82 697.01 -160.19 702.75 C-165.21 709.35 -170.25 715.93 -175.31 722.5 C-179.6 728.07 -183.85 733.67 -188.11 739.27 C-191.38 743.57 -194.66 747.87 -197.97 752.14 C-198.42 752.71 -198.86 753.29 -199.31 753.88 C-200.03 754.76 -200.76 755.65 -201.5 756.56 C-203.3 758.89 -204.59 761.13 -205.78 763.82 C-208.07 768.46 -210.58 772.18 -215 775 C-224.08 777.71 -234.1 776.94 -243.5 776.74 C-247.44 776.68 -251.39 776.7 -255.33 776.71 C-262.15 776.72 -268.97 776.67 -275.8 776.59 C-285.66 776.46 -295.52 776.42 -305.39 776.41 C-321.39 776.37 -337.4 776.27 -353.4 776.13 C-368.95 775.99 -384.49 775.89 -400.03 775.82 C-400.99 775.82 -401.95 775.82 -402.94 775.81 C-407.75 775.79 -412.56 775.77 -417.37 775.75 C-457.25 775.6 -497.12 775.34 -537 775 C-535.01 771.64 -532.94 768.45 -530.62 765.31 C-529.92 764.35 -529.21 763.39 -528.48 762.39 C-527.89 761.59 -527.89 761.59 -527.29 760.77 C-525.35 758.11 -523.43 755.44 -521.51 752.76 C-516.36 745.62 -511.17 738.51 -505.94 731.44 C-501.51 725.45 -497.15 719.42 -492.88 713.31 C-488.09 706.49 -483.15 699.81 -478.13 693.16 C-469.52 681.74 -461.11 670.18 -452.77 658.57 C-448.63 652.84 -444.41 647.18 -440.16 641.54 C-436.81 637.09 -433.52 632.62 -430.26 628.11 C-427.19 623.89 -424.1 619.7 -421 615.5 C-416.7 609.67 -412.42 603.84 -408.17 597.97 C-405.23 593.95 -402.27 589.94 -399.31 585.94 C-394.56 579.51 -389.86 573.05 -385.19 566.56 C-381 560.75 -376.76 554.98 -372.45 549.26 C-364.17 538.27 -356.06 527.15 -348 516 C-344.58 519.19 -341.91 522.74 -339.25 526.56 C-338.37 527.81 -337.5 529.06 -336.62 530.3 C-336.18 530.92 -335.75 531.54 -335.3 532.18 C-334.07 533.9 -332.83 535.6 -331.57 537.29 C-330.85 538.27 -330.12 539.24 -329.38 540.25 C-328.72 541.12 -328.07 541.99 -327.4 542.89 C-326 545 -326 545 -326 547 C-266.27 547 -206.54 547 -145 547 C-144.34 545.35 -143.68 543.7 -143 542 C-142.01 540.2 -140.99 538.42 -139.94 536.66 C-139.31 535.61 -138.69 534.56 -138.05 533.48 C-137.37 532.35 -136.7 531.22 -136 530.06 C-135.3 528.88 -134.59 527.7 -133.89 526.51 C-130.37 520.58 -126.81 514.67 -123.18 508.8 C-121.5 506.07 -119.83 503.34 -118.16 500.61 C-117.35 499.29 -116.53 497.97 -115.71 496.66 C-114.55 494.81 -113.41 492.96 -112.28 491.1 C-111.62 490.04 -110.96 488.98 -110.28 487.89 C-108.82 484.59 -108.79 483.36 -110 480 C-110.98 478.07 -110.98 478.07 -112.27 476.28 C-112.74 475.59 -113.21 474.89 -113.69 474.18 C-114.21 473.44 -114.72 472.7 -115.25 471.94 C-116.36 470.31 -117.46 468.69 -118.57 467.06 C-119.14 466.22 -119.71 465.38 -120.3 464.52 C-122.98 460.55 -125.59 456.53 -128.19 452.5 C-132.49 445.86 -136.82 439.22 -141.16 432.6 C-147.56 422.83 -153.91 413.04 -160.19 403.19 C-165.68 394.56 -171.29 386.02 -176.99 377.53 C-180.76 371.91 -184.41 366.23 -188 360.5 C-192.64 353.09 -197.43 345.79 -202.3 338.53 C-207.35 330.99 -212.34 323.41 -217.31 315.81 C-217.71 315.2 -218.12 314.58 -218.53 313.95 C-220.96 310.24 -223.39 306.52 -225.82 302.8 C-227.7 299.93 -229.58 297.05 -231.46 294.18 C-239.43 282.01 -247.38 269.83 -255.32 257.65 C-257.8 253.84 -260.29 250.03 -262.78 246.23 C-270.86 233.88 -278.84 221.47 -286.73 209 C-287.8 207.32 -288.9 205.66 -290 204 C-289.91 198.79 -286.48 194.86 -283.62 190.75 C-282.52 189.12 -281.41 187.49 -280.3 185.86 C-279.47 184.63 -279.47 184.63 -278.61 183.38 C-276.28 179.93 -274.01 176.44 -271.75 172.94 C-271.32 172.27 -270.89 171.61 -270.45 170.93 C-263.61 160.3 -256.81 149.65 -250 139 C-247.51 141.38 -245.44 143.61 -243.7 146.59 C-243.28 147.28 -242.87 147.97 -242.45 148.68 C-242.01 149.43 -241.58 150.17 -241.12 150.94 C-237.01 157.81 -232.72 164.54 -228.25 171.19 C-223.34 178.49 -218.48 185.81 -213.69 193.19 C-213.07 194.13 -212.46 195.07 -211.83 196.04 C-210.55 198 -209.28 199.96 -208.01 201.92 C-202.32 210.66 -196.61 219.39 -190.89 228.11 C-189.7 229.94 -188.5 231.76 -187.31 233.59 C-185.9 235.75 -184.48 237.91 -183.06 240.06 C-182.67 240.67 -182.27 241.28 -181.87 241.9 C-179.92 244.96 -179.92 244.96 -177 247 C-176.8 246.35 -176.6 245.71 -176.39 245.04 C-174.4 240.69 -171.56 237.12 -168.69 233.31 C-167.41 231.6 -166.13 229.89 -164.86 228.18 C-164.21 227.31 -163.57 226.45 -162.9 225.56 C-160.04 221.71 -157.24 217.83 -154.44 213.94 C-153.91 213.2 -153.38 212.47 -152.83 211.71 C-151.76 210.22 -150.69 208.74 -149.62 207.25 C-147.97 204.95 -146.31 202.66 -144.65 200.36 C-139.75 193.59 -134.85 186.81 -130 180 C-121.69 168.35 -113.31 156.76 -104.81 145.25 C-100 138.73 -95.24 132.18 -90.54 125.57 C-82.55 114.33 -74.43 103.2 -66.23 92.11 C-60.64 84.52 -55.12 76.88 -49.61 69.23 C-46.37 64.73 -43.12 60.24 -39.87 55.75 C-37.17 52.01 -34.48 48.28 -31.79 44.54 C-26.11 36.66 -20.4 28.81 -14.62 21 C-6.7 10.89 -6.7 10.89 0 0 Z " fill="#21BD64" transform="translate(1196,761)"/>
<path d="M0 0 C3.2 2.82 5.34 6.36 7.64 9.91 C8.31 10.93 8.31 10.93 8.99 11.97 C10.41 14.14 11.83 16.32 13.25 18.5 C14.19 19.94 15.13 21.37 16.07 22.8 C19.96 28.75 23.83 34.71 27.62 40.71 C31.18 46.32 34.88 51.83 38.59 57.34 C44.09 65.53 49.56 73.72 54.62 82.19 C60.11 91.35 66.06 100.18 72.01 109.04 C76.15 115.21 80.22 121.42 84.25 127.67 C87.03 131.98 89.85 136.27 92.73 140.51 C93.34 141.42 93.95 142.33 94.58 143.26 C95.75 145.01 96.93 146.74 98.13 148.47 C98.65 149.25 99.17 150.03 99.71 150.84 C100.18 151.52 100.65 152.21 101.13 152.91 C102.31 155.74 101.94 157.1 101 160 C99.6 162.68 99.6 162.68 97.78 165.59 C97.1 166.69 96.43 167.79 95.73 168.93 C95.37 169.51 95 170.09 94.63 170.69 C92.69 173.79 90.78 176.91 88.87 180.03 C88.47 180.67 88.08 181.32 87.67 181.99 C82.43 190.53 77.4 199.19 72.36 207.84 C72.01 208.44 71.67 209.03 71.31 209.64 C70.38 211.24 69.45 212.84 68.52 214.44 C67.4 216.33 66.22 218.18 65 220 C61.96 220.42 61.96 220.42 57.97 220.48 C56.87 220.5 56.87 220.5 55.75 220.52 C53.28 220.56 50.82 220.59 48.35 220.61 C46.58 220.64 44.82 220.67 43.06 220.69 C37.25 220.78 31.44 220.84 25.63 220.89 C24.64 220.9 23.66 220.91 22.64 220.92 C13.31 221.01 3.99 221.08 -5.34 221.13 C-17.26 221.19 -29.18 221.3 -41.1 221.5 C-49.49 221.63 -57.87 221.7 -66.26 221.72 C-71.26 221.74 -76.27 221.78 -81.27 221.89 C-114.2 222.59 -114.2 222.59 -120.99 216.33 C-123.8 212.87 -125.56 209.27 -127.1 205.11 C-128.58 201.64 -130.87 199.11 -133.31 196.25 C-137 191.74 -137 191.74 -137 188.53 C-135.72 185.28 -133.95 183.03 -131.75 180.31 C-130.83 179.16 -129.91 178 -129 176.84 C-128.51 176.22 -128.02 175.6 -127.52 174.96 C-124.84 171.5 -122.3 167.94 -119.75 164.38 C-115.21 158.05 -110.63 151.76 -106 145.5 C-99.81 137.12 -93.7 128.69 -87.61 120.23 C-84.91 116.49 -82.2 112.74 -79.5 109 C-78.42 107.5 -77.33 106 -76.25 104.5 C-53.5 73 -53.5 73 -30.75 41.5 C-30.21 40.76 -29.68 40.01 -29.12 39.25 C-28.04 37.75 -26.97 36.26 -25.89 34.77 C-23.11 30.92 -20.34 27.08 -17.57 23.22 C-11.91 15.31 -6.22 7.48 0 0 Z " fill="#106642" transform="translate(986,1088)"/>
<path d="M0 0 C1.79 0 1.79 0 3.62 0 C4.28 0 4.94 0 5.62 0 C7.86 -0 10.1 0 12.33 0.01 C13.93 0.01 15.52 0.01 17.12 0.01 C21.47 0.01 25.81 0.01 30.16 0.02 C34.7 0.03 39.24 0.03 43.77 0.03 C52.37 0.03 60.97 0.04 69.57 0.05 C79.36 0.06 89.14 0.07 98.93 0.07 C119.07 0.08 139.21 0.1 159.35 0.12 C155 7.8 155 7.8 152.35 11.33 C151.8 12.07 151.25 12.81 150.68 13.58 C150.1 14.36 149.51 15.13 148.91 15.94 C147.65 17.63 146.39 19.32 145.13 21.02 C144.5 21.87 143.86 22.72 143.21 23.6 C140.39 27.42 137.62 31.27 134.85 35.12 C130.39 41.32 125.88 47.48 121.35 53.62 C114.61 62.74 107.97 71.92 101.35 81.12 C94.15 91.13 86.9 101.1 79.58 111.02 C73.98 118.6 68.46 126.24 62.96 133.89 C60.26 137.64 57.55 141.38 54.85 145.12 C53.76 146.62 52.68 148.12 51.6 149.62 C6.1 212.62 6.1 212.62 4.47 214.88 C3.4 216.36 2.32 217.85 1.25 219.34 C-1.6 223.29 -4.46 227.24 -7.32 231.19 C-8.22 232.42 -8.22 232.42 -9.14 233.69 C-10.29 235.28 -11.45 236.87 -12.6 238.46 C-13.12 239.18 -13.64 239.89 -14.17 240.62 C-14.63 241.25 -15.08 241.88 -15.55 242.53 C-16.72 244.14 -16.72 244.14 -17.65 246.12 C-21.57 244.63 -23.01 242.5 -25.19 238.99 C-25.85 237.94 -26.51 236.9 -27.18 235.82 C-27.88 234.7 -28.57 233.59 -29.28 232.44 C-30.36 230.7 -31.45 228.97 -32.54 227.24 C-33.61 225.55 -34.68 223.85 -35.74 222.15 C-38.01 218.56 -40.34 215.02 -42.72 211.5 C-48.81 202.44 -54.74 193.29 -60.69 184.14 C-63.25 180.2 -65.82 176.26 -68.39 172.32 C-75.83 160.93 -83.24 149.53 -90.65 138.12 C-86.02 129.84 -80.95 121.89 -75.76 113.95 C-72.07 108.31 -68.43 102.64 -64.84 96.94 C-60.19 89.54 -55.49 82.17 -50.78 74.81 C-45.68 66.86 -40.6 58.9 -35.53 50.94 C-34.96 50.04 -34.39 49.15 -33.81 48.23 C-30.89 43.64 -27.97 39.05 -25.06 34.46 C-19.51 25.73 -13.95 17 -8.34 8.31 C-7.88 7.59 -7.42 6.88 -6.94 6.14 C-3.06 0.14 -3.06 0.14 0 0 Z " fill="#116644" transform="translate(1036.6530618667603,761.8769521713257)"/>
<path d="M0 0 C2.49 2.38 4.56 4.61 6.3 7.59 C6.72 8.28 7.13 8.97 7.55 9.68 C7.99 10.43 8.42 11.17 8.88 11.94 C12.99 18.81 17.28 25.54 21.75 32.19 C26.66 39.49 31.52 46.81 36.31 54.19 C37.23 55.6 37.23 55.6 38.17 57.04 C39.45 59 40.72 60.96 41.99 62.92 C47.68 71.66 53.39 80.39 59.11 89.11 C60.3 90.94 61.5 92.76 62.69 94.59 C64.1 96.75 65.52 98.91 66.94 101.06 C67.33 101.67 67.73 102.28 68.13 102.9 C70.08 105.96 70.08 105.96 73 108 C73.27 107.26 73.54 106.52 73.82 105.75 C74.94 103.14 76.13 101.21 77.84 98.95 C78.41 98.19 78.98 97.42 79.57 96.64 C80.16 95.85 80.76 95.06 81.38 94.25 C82.53 92.72 83.68 91.18 84.84 89.64 C85.51 88.8 86.19 87.96 86.88 87.1 C88.66 84.5 89.66 82.48 90.79 79.61 C93.22 74.2 95.75 70 101 67 C112.69 64.24 125.15 65.32 137.05 65.83 C141.56 66.01 146.06 66.08 150.57 66.17 C159.38 66.35 168.19 66.64 177 67 C176.23 68.41 175.45 69.83 174.67 71.24 C174.03 72.42 174.03 72.42 173.36 73.62 C171.19 77.42 168.69 80.98 166.19 84.56 C161.09 91.93 156.08 99.35 151.12 106.81 C146.23 114.18 141.31 121.52 136.31 128.81 C128.55 140.15 120.87 151.55 113.19 162.94 C112.56 163.87 111.94 164.79 111.29 165.75 C103.83 176.81 96.39 187.89 89 199 C87.67 201 86.33 203 85 205 C84.37 205.95 83.74 206.89 83.09 207.87 C82.4 208.9 81.71 209.94 81 211 C80.58 211.64 80.15 212.27 79.72 212.93 C76.14 218.28 72.57 223.64 69 229 C64.87 227.62 63.8 224.82 61.69 221.25 C57.79 214.84 53.75 208.54 49.56 202.31 C43.89 193.85 38.27 185.34 32.69 176.81 C32.08 175.89 32.08 175.89 31.47 174.95 C29.04 171.24 26.61 167.52 24.18 163.8 C22.3 160.93 20.42 158.05 18.54 155.18 C10.57 143.01 2.62 130.83 -5.32 118.65 C-7.8 114.84 -10.29 111.03 -12.78 107.23 C-20.86 94.88 -28.84 82.47 -36.73 70 C-37.8 68.32 -38.9 66.66 -40 65 C-39.91 59.79 -36.48 55.86 -33.62 51.75 C-32.52 50.12 -31.41 48.49 -30.3 46.86 C-29.75 46.04 -29.19 45.23 -28.61 44.38 C-26.28 40.93 -24.01 37.44 -21.75 33.94 C-21.32 33.27 -20.89 32.61 -20.45 31.93 C-13.61 21.3 -6.81 10.65 0 0 Z " fill="#FDFEFE" transform="translate(946,900)"/>
<path d="M0 0 C1.46 -0 2.91 -0.01 4.37 -0.02 C8.37 -0.03 12.37 -0 16.37 0.03 C20.69 0.05 25.01 0.04 29.32 0.04 C36.8 0.03 44.28 0.05 51.75 0.09 C62.56 0.14 73.37 0.15 84.19 0.16 C101.72 0.17 119.26 0.21 136.8 0.27 C153.84 0.32 170.88 0.37 187.92 0.39 C189.49 0.39 189.49 0.39 191.1 0.4 C196.37 0.4 201.64 0.41 206.91 0.42 C250.62 0.48 294.33 0.59 338.04 0.72 C337.71 1.38 337.38 2.04 337.04 2.72 C336.3 2.72 335.56 2.72 334.8 2.72 C291.17 2.6 247.54 2.52 203.91 2.47 C198.67 2.46 193.44 2.45 188.2 2.45 C187.16 2.45 186.12 2.44 185.04 2.44 C168.15 2.42 151.26 2.38 134.37 2.34 C117.05 2.29 99.72 2.26 82.4 2.25 C71.7 2.24 61.01 2.22 50.31 2.18 C42.99 2.16 35.66 2.15 28.33 2.15 C24.1 2.16 19.87 2.15 15.64 2.13 C11.76 2.1 7.89 2.1 4.02 2.12 C2.62 2.12 1.21 2.11 -0.19 2.1 C-7.32 1.75 -7.32 1.75 -13.92 3.87 C-15.5 5.33 -15.5 5.33 -16.96 7.72 C-17.62 7.39 -18.28 7.06 -18.96 6.72 C-14.61 -1.19 -8.25 -0.11 0 0 Z " fill="#255044" transform="translate(1038.9645538330078,511.2784729003906)"/>
<path d="M0 0 C25.08 0 50.16 0 76 0 C75.01 1.98 74.02 3.96 73 6 C72.51 4.51 72.51 4.51 72 3 C48.24 2.67 24.48 2.34 0 2 C0 1.34 0 0.68 0 0 Z " fill="#E2FEF2" transform="translate(1047,967)"/>
<path d="M0 0 C0.33 0.66 0.66 1.32 1 2 C24.76 2 48.52 2 73 2 C73 2.66 73 3.32 73 4 C48.25 4 23.5 4 -2 4 C-1.34 2.68 -0.68 1.36 0 0 Z " fill="#3FB371" transform="translate(1050,963)"/>
<path d="M0 0 C15.84 0.5 15.84 0.5 32 1 C32.49 2.49 32.49 2.49 33 4 C21.78 3.67 10.56 3.34 -1 3 C-0.67 2.01 -0.34 1.02 0 0 Z " fill="#49C07C" transform="translate(1196,761)"/>
<path d="M0 0 C1 3 1 3 -0 5.23 C-2.94 9.97 -5.9 14.36 -9.7 18.43 C-11.14 20.18 -12.06 21.95 -13 24 C-13.66 24 -14.32 24 -15 24 C-13.6 20.03 -11.72 17.04 -9.19 13.69 C-5.88 9.24 -2.86 4.74 0 0 Z " fill="#3FB873" transform="translate(1085,1023)"/>
<path d="M0 0 C0.33 0.99 0.66 1.98 1 3 C-0.33 5.26 -0.33 5.26 -2.25 7.69 C-2.87 8.5 -3.5 9.3 -4.14 10.14 C-5.06 11.06 -5.06 11.06 -6 12 C-6.99 12 -7.98 12 -9 12 C-6.03 8.04 -3.06 4.08 0 0 Z " fill="#3BB870" transform="translate(780,1370)"/>
<path d="M0 0 C0.64 1.81 0.64 1.81 1 4 C-1.69 7.68 -4.72 10.84 -8 14 C-6.67 10.38 -5.06 7.36 -2.88 4.19 C-2.07 3 -2.07 3 -1.24 1.79 C-0.83 1.2 -0.42 0.61 0 0 Z " fill="#41B874" transform="translate(1108,989)"/>
<path d="M0 0 C0.33 0.99 0.66 1.98 1 3 C0.01 4.48 0.01 4.48 -1 6 C-1.66 6 -2.32 6 -3 6 C-3.66 7.32 -4.32 8.64 -5 10 C-5.66 9.67 -6.32 9.34 -7 9 C-4.69 6.03 -2.38 3.06 0 0 Z " fill="#3FB773" transform="translate(838,1291)"/>
<path d="M0 0 C1 4 1 4 0 5.7 C-1.33 7.14 -2.67 8.57 -4 10 C-4.66 9.67 -5.32 9.34 -6 9 C-4.02 6.03 -2.04 3.06 0 0 Z " fill="#3BB771" transform="translate(698,1481)"/>
<path d="M0 0 C0.66 0.99 1.32 1.98 2 3 C0.35 4.65 -1.3 6.3 -3 8 C-3.66 7.67 -4.32 7.34 -5 7 C-3.35 4.69 -1.7 2.38 0 0 Z " fill="#3EB972" transform="translate(731,1436)"/>
</svg>
